<svg fill="none" xmlns="http://www.w3.org/2000/svg">

<symbol id="icon-door">
<path fill-rule="evenodd" clip-rule="evenodd" d="M16.8966 3.02506C17.6431 2.80111 18.4316 2.75479 19.1992 2.88978C19.9669 3.02476 20.6923 3.33733 21.3176 3.80252C21.9429 4.26772 22.4509 4.87265 22.8008 5.56905C23.1508 6.26544 23.3331 7.034 23.3333 7.81339V32.1867C23.3331 32.9661 23.1508 33.7347 22.8008 34.4311C22.4509 35.1275 21.9429 35.7324 21.3176 36.1976C20.6923 36.6628 19.9669 36.9753 19.1992 37.1103C18.4316 37.2453 17.6431 37.199 16.8966 36.9751L6.89659 33.9751C5.86675 33.6661 4.96393 33.0335 4.32205 32.1709C3.68018 31.3084 3.33343 30.2619 3.33325 29.1867V10.8134C3.33343 9.73822 3.68018 8.69174 4.32205 7.8292C4.96393 6.96665 5.86675 6.33399 6.89659 6.02506L16.8966 3.02506ZM24.9999 6.66672C24.9999 6.22469 25.1755 5.80077 25.4881 5.48821C25.8006 5.17565 26.2246 5.00006 26.6666 5.00006H31.6666C32.9927 5.00006 34.2644 5.52684 35.2021 6.46452C36.1398 7.4022 36.6666 8.67397 36.6666 10.0001V11.6667C36.6666 12.1088 36.491 12.5327 36.1784 12.8452C35.8659 13.1578 35.4419 13.3334 34.9999 13.3334C34.5579 13.3334 34.134 13.1578 33.8214 12.8452C33.5088 12.5327 33.3333 12.1088 33.3333 11.6667V10.0001C33.3333 9.55803 33.1577 9.13411 32.8451 8.82154C32.5325 8.50898 32.1086 8.33339 31.6666 8.33339H26.6666C26.2246 8.33339 25.8006 8.15779 25.4881 7.84523C25.1755 7.53267 24.9999 7.10875 24.9999 6.66672ZM34.9999 26.6667C35.4419 26.6667 35.8659 26.8423 36.1784 27.1549C36.491 27.4674 36.6666 27.8914 36.6666 28.3334V30.0001C36.6666 31.3261 36.1398 32.5979 35.2021 33.5356C34.2644 34.4733 32.9927 35.0001 31.6666 35.0001H26.6666C26.2246 35.0001 25.8006 34.8245 25.4881 34.5119C25.1755 34.1993 24.9999 33.7754 24.9999 33.3334C24.9999 32.8914 25.1755 32.4674 25.4881 32.1549C25.8006 31.8423 26.2246 31.6667 26.6666 31.6667H31.6666C32.1086 31.6667 32.5325 31.4911 32.8451 31.1786C33.1577 30.866 33.3333 30.4421 33.3333 30.0001V28.3334C33.3333 27.8914 33.5088 27.4674 33.8214 27.1549C34.134 26.8423 34.5579 26.6667 34.9999 26.6667ZM14.9999 18.3334C14.5579 18.3334 14.134 18.509 13.8214 18.8215C13.5088 19.1341 13.3333 19.558 13.3333 20.0001C13.3333 20.4421 13.5088 20.866 13.8214 21.1786C14.134 21.4911 14.5579 21.6667 14.9999 21.6667H15.0016C15.4436 21.6667 15.8675 21.4911 16.1801 21.1786C16.4927 20.866 16.6683 20.4421 16.6683 20.0001C16.6683 19.558 16.4927 19.1341 16.1801 18.8215C15.8675 18.509 15.4436 18.3334 15.0016 18.3334H14.9999Z" />
<path d="M34.9998 20.0001L31.6665 23.3334M26.6665 20.0001H34.9998H26.6665ZM34.9998 20.0001L31.6665 16.6667L34.9998 20.0001Z" stroke="#3366FF" stroke-width="3.33333" stroke-linecap="round" stroke-linejoin="round"/>
</symbol>

<symbol id="icon-book">
<rect width="48" height="48.1157" rx="8" />
<path d="M34 28.7689V16.6989C34 15.4989 33.02 14.6089 31.83 14.7089H31.77C29.67 14.8889 26.48 15.9589 24.7 17.0789L24.53 17.1889C24.24 17.3689 23.76 17.3689 23.47 17.1889L23.22 17.0389C21.44 15.9289 18.26 14.8689 16.16 14.6989C14.97 14.5989 14 15.4989 14 16.6889V28.7689C14 29.7289 14.78 30.6289 15.74 30.7489L16.03 30.7889C18.2 31.0789 21.55 32.1789 23.47 33.2289L23.51 33.2489C23.78 33.3989 24.21 33.3989 24.47 33.2489C26.39 32.1889 29.75 31.0789 31.93 30.7889L32.26 30.7489C33.22 30.6289 34 29.7289 34 28.7689Z" stroke="white" stroke-width="1.5" stroke-linecap="round" stroke-linejoin="round"/>
<path d="M24 17.5189V32.5189" stroke="white" stroke-width="1.5" stroke-linecap="round" stroke-linejoin="round"/>
<path d="M19.75 20.5189H17.5" stroke="white" stroke-width="1.5" stroke-linecap="round" stroke-linejoin="round"/>
<path d="M20.5 23.5189H17.5" stroke="white" stroke-width="1.5" stroke-linecap="round" stroke-linejoin="round"/>

</symbol>

<symbol id="icon-microphone" >
<rect width="48" height="48.1157" rx="8" />
<path d="M24 31.0289C27.31 31.0289 30 28.3389 30 25.0289V20.0289C30 16.7189 27.31 14.0289 24 14.0289C20.69 14.0289 18 16.7189 18 20.0289V25.0289C18 28.3389 20.69 31.0289 24 31.0289Z" stroke="white" stroke-width="1.5" stroke-linecap="round" stroke-linejoin="round"/>
<path d="M15 23.0289V25.0289C15 29.9989 19.03 34.0289 24 34.0289C28.97 34.0289 33 29.9989 33 25.0289V23.0289" stroke="white" stroke-width="1.5" stroke-linecap="round" stroke-linejoin="round"/>
<path d="M21.1101 19.5089C22.8901 18.8589 24.8301 18.8589 26.6101 19.5089" stroke="white" stroke-width="1.5" stroke-linecap="round" stroke-linejoin="round"/>
<path d="M22.03 22.5089C23.23 22.1789 24.5 22.1789 25.7 22.5089" stroke="white" stroke-width="1.5" stroke-linecap="round" stroke-linejoin="round"/>


</symbol>
     
<symbol id="icon-earphone">
<rect width="48" height="48" rx="8" />
<path  d="M18 19.0289C16.897 19.0289 16 18.1319 16 17.0289C16 15.9259 16.897 15.0289 18 15.0289C19.103 15.0289 20 15.9259 20 17.0289C20 18.1319 19.103 19.0289 18 19.0289ZM6 15.0289C7.103 15.0289 8 15.9259 8 17.0289C8 18.1319 7.103 19.0289 6 19.0289C4.897 19.0289 4 18.1319 4 17.0289C4 15.9259 4.897 15.0289 6 15.0289ZM12 2.02893C6.486 2.02893 2 6.67893 2 12.3949V17.0289C2 19.2349 3.794 21.0289 6 21.0289C8.206 21.0289 10 19.2349 10 17.0289C10 14.8229 8.206 13.0289 6 13.0289C5.268 13.0289 4.591 13.2409 4 13.5859V12.3949C4 7.78193 7.589 4.02893 12 4.02893C16.411 4.02893 20 7.78193 20 12.3949V13.5859C19.409 13.2409 18.732 13.0289 18 13.0289C15.794 13.0289 14 14.8229 14 17.0289C14 19.2349 15.794 21.0289 18 21.0289C20.206 21.0289 22 19.2349 22 17.0289V12.3949C22 6.67893 17.514 2.02893 12 2.02893Z" stroke="white"/>
</symbol>

<symbol id="icon-utility">
<svg width="48" height="49" viewBox="0 0 48 49" fill="none" xmlns="http://www.w3.org/2000/svg">
<rect width="48" height="48.1157" rx="8" />
</svg>
</symbol>

<symbol id="icon-more" viewBox="0 0 24 24">
<path fill-rule="evenodd" clip-rule="evenodd" d="M12 7C13.104 7 14 6.104 14 5C14 3.896 13.104 3 12 3C10.896 3 10 3.896 10 5C10 6.104 10.896 7 12 7ZM12 10C10.896 10 10 10.896 10 12C10 13.104 10.896 14 12 14C13.104 14 14 13.104 14 12C14 10.896 13.104 10 12 10ZM10 19C10 17.896 10.896 17 12 17C13.104 17 14 17.896 14 19C14 20.104 13.104 21 12 21C10.896 21 10 20.104 10 19Z" />
</symbol>

<symbol id="icon-folder">
<path d="M28.0799 15.76L27.8666 15.4667C27.4933 15.0133 27.0533 14.6533 26.5466 14.3867C25.8666 14 25.0933 13.8 24.2933 13.8H7.69327C6.89327 13.8 6.13327 14 5.43994 14.3867C4.91994 14.6667 4.45327 15.0533 4.0666 15.5333C3.3066 16.5067 2.9466 17.7067 3.0666 18.9067L3.55994 25.1333C3.73327 27.0133 3.95994 29.3333 8.1866 29.3333H23.8133C28.0399 29.3333 28.2533 27.0133 28.4399 25.12L28.9333 18.92C29.0533 17.8 28.7599 16.68 28.0799 15.76ZM19.1866 23.12H12.7999C12.2799 23.12 11.8666 22.6933 11.8666 22.1867C11.8666 21.68 12.2799 21.2533 12.7999 21.2533H19.1866C19.7066 21.2533 20.1199 21.68 20.1199 22.1867C20.1199 22.7067 19.7066 23.12 19.1866 23.12Z" />
<path opacity="0.4" d="M4.50659 15.08C4.79993 14.8133 5.09326 14.5733 5.43992 14.3867C6.11992 14 6.89326 13.8 7.69326 13.8H24.3066C25.1066 13.8 25.8666 14 26.5599 14.3867C26.9066 14.5733 27.2133 14.8133 27.4933 15.0933V14.3867V13.0933C27.4933 8.33332 26.0399 6.87999 21.2799 6.87999H18.1066C17.5199 6.87999 17.5066 6.86666 17.1599 6.41332L15.5599 4.26666C14.7999 3.27999 14.1999 2.66666 12.2933 2.66666H10.7199C5.95993 2.66666 4.50659 4.11999 4.50659 8.87999V14.4V15.08Z" />
</symbol>

<symbol id="icon-arrow-left">
<path fill-rule="evenodd" clip-rule="evenodd" d="M10.5 17C10.244 17 9.98801 16.902 9.79301 16.707C9.40201 16.316 9.40201 15.684 9.79301 15.293L13.098 11.988L9.91801 8.695C9.53501 8.297 9.54601 7.664 9.94301 7.281C10.341 6.898 10.974 6.909 11.357 7.305L15.219 11.305C15.598 11.698 15.593 12.321 15.207 12.707L11.207 16.707C11.012 16.902 10.756 17 10.5 17Z" />
</symbol>

<symbol id="icon-menu">
<path fill-rule="evenodd" clip-rule="evenodd" d="M3.94824 6H20.0512C20.5732 6 21.0002 6.427 21.0002 6.949V7.051C21.0002 7.573 20.5732 8 20.0512 8H3.94824C3.42624 8 3.00024 7.573 3.00024 7.051V6.949C3.00024 6.427 3.42624 6 3.94824 6ZM20.0512 11H3.94824C3.42624 11 3.00024 11.427 3.00024 11.949V12.051C3.00024 12.573 3.42624 13 3.94824 13H20.0512C20.5732 13 21.0002 12.573 21.0002 12.051V11.949C21.0002 11.427 20.5732 11 20.0512 11ZM20.0512 16H3.94824C3.42624 16 3.00024 16.427 3.00024 16.949V17.051C3.00024 17.573 3.42624 18 3.94824 18H20.0512C20.5732 18 21.0002 17.573 21.0002 17.051V16.949C21.0002 16.427 20.5732 16 20.0512 16Z" />
</symbol>

<symbol id="icon-dollar">
<path d="M10.6 9C10.2 8.9 9.8 8.7 9.5 8.4C9.2 8.3 9.1 8 9.1 7.8C9.1 7.6 9.2 7.3 9.4 7.2C9.7 7 10 6.8 10.3 6.9C10.9 6.9 11.4 7.2 11.7 7.6L12.6 6.4C12.3 6.1 12 5.9 11.7 5.7C11.4 5.5 11 5.4 10.6 5.4V4H9.4V5.4C8.9 5.5 8.4 5.8 8 6.2C7.6 6.7 7.3 7.3 7.4 7.9C7.4 8.5 7.6 9.1 8 9.5C8.5 10 9.2 10.3 9.8 10.6C10.1 10.7 10.5 10.9 10.8 11.1C11 11.3 11.1 11.6 11.1 11.9C11.1 12.2 11 12.5 10.8 12.8C10.5 13.1 10.1 13.2 9.8 13.2C9.4 13.2 8.9 13.1 8.6 12.8C8.3 12.6 8 12.3 7.8 12L6.8 13.1C7.1 13.5 7.4 13.8 7.8 14.1C8.3 14.4 8.9 14.7 9.5 14.7V16H10.6V14.5C11.2 14.4 11.7 14.1 12.1 13.7C12.6 13.2 12.9 12.4 12.9 11.7C12.9 11.1 12.7 10.4 12.2 10C11.7 9.5 11.2 9.2 10.6 9ZM10 2C5.6 2 2 5.6 2 10C2 14.4 5.6 18 10 18C14.4 18 18 14.4 18 10C18 5.6 14.4 2 10 2ZM10 16.9C6.2 16.9 3.1 13.8 3.1 10C3.1 6.2 6.2 3.1 10 3.1C13.8 3.1 16.9 6.2 16.9 10C16.9 13.8 13.8 16.9 10 16.9Z"/>
</symbol>

<symbol id="icon-car">
<g clip-path="url(#clip0_4_386)">
<path d="M19.5308 6.875H17.1922L16.5422 5.25C15.8742 3.5793 14.2801 2.5 12.4804 2.5H7.51951C5.72029 2.5 4.12576 3.5793 3.4574 5.25L2.8074 6.875H0.469121C0.164043 6.875 -0.0597856 7.16172 0.0144331 7.45742L0.248808 8.39492C0.300761 8.60352 0.488261 8.75 0.703496 8.75H1.48748C0.962871 9.2082 0.62498 9.87422 0.62498 10.625V12.5C0.62498 13.1297 0.865605 13.698 1.24998 14.1379V16.25C1.24998 16.9402 1.80975 17.5 2.49998 17.5H3.74998C4.44021 17.5 4.99998 16.9402 4.99998 16.25V15H15V16.25C15 16.9402 15.5597 17.5 16.25 17.5H17.5C18.1902 17.5 18.75 16.9402 18.75 16.25V14.1379C19.1344 13.6984 19.375 13.1301 19.375 12.5V10.625C19.375 9.87422 19.0371 9.2082 18.5129 8.75H19.2969C19.5121 8.75 19.6996 8.60352 19.7515 8.39492L19.9859 7.45742C20.0597 7.16172 19.8359 6.875 19.5308 6.875ZM5.7785 6.17852C6.06326 5.4668 6.75271 5 7.51951 5H12.4804C13.2472 5 13.9367 5.4668 14.2215 6.17852L15 8.125H4.99998L5.7785 6.17852ZM3.74998 12.4922C2.99998 12.4922 2.49998 11.9937 2.49998 11.2461C2.49998 10.4984 2.99998 10 3.74998 10C4.49998 10 5.62498 11.1215 5.62498 11.8691C5.62498 12.6168 4.49998 12.4922 3.74998 12.4922ZM16.25 12.4922C15.5 12.4922 14.375 12.6168 14.375 11.8691C14.375 11.1215 15.5 10 16.25 10C17 10 17.5 10.4984 17.5 11.2461C17.5 11.9937 17 12.4922 16.25 12.4922Z" />
</g>
<defs>
<clipPath id="clip0_4_386">
<rect width="20" height="20" />
</clipPath>
</defs>
</symbol>

<symbol id="icon-map">
<g clip-path="url(#clip0_13_267)">
<path d="M14.6154 0C12.9162 0 11.5385 1.37923 11.5385 3.07692C11.5385 5.12692 14.2308 7.92769 14.2308 10.7454H15.0001C15.0008 7.92769 17.6924 5.20769 17.6924 3.07692C17.6924 1.37923 16.3147 0 14.6154 0ZM14.6154 1.49077C14.8238 1.49087 15.0302 1.53202 15.2227 1.61186C15.4152 1.6917 15.5901 1.80868 15.7373 1.95611C15.8846 2.10354 16.0014 2.27854 16.0811 2.47111C16.1607 2.66369 16.2017 2.87006 16.2016 3.07846C16.2015 3.28686 16.1603 3.4932 16.0805 3.68569C16.0007 3.87819 15.8837 4.05307 15.7363 4.20036C15.5888 4.34765 15.4138 4.46446 15.2213 4.54411C15.0287 4.62377 14.8223 4.66472 14.6139 4.66462C14.1929 4.66441 13.7893 4.49698 13.4917 4.19916C13.1942 3.90134 13.0272 3.49752 13.0274 3.07654C13.0276 2.65556 13.195 2.2519 13.4928 1.95437C13.7906 1.65683 14.1945 1.4898 14.6154 1.49V1.49077ZM10.0001 1.53846C4.91006 1.53846 0.769287 5.67923 0.769287 10.7692C0.769287 15.8592 4.91006 20 10.0001 20C15.0901 20 19.2308 15.8592 19.2308 10.7692C19.2308 9.22308 18.8477 7.77231 18.1731 6.49C18.0708 6.69308 17.9677 6.88615 17.8608 7.09154C17.6585 7.48231 17.4454 7.87692 17.2593 8.26923C17.4516 8.81923 17.5839 9.40077 17.6439 10H16.6347C16.5793 10.2577 16.5385 10.5 16.5385 10.7454V11.5385H17.6447C17.5403 12.6229 17.204 13.6723 16.6585 14.6154H14.4001C14.5693 13.8938 14.667 13.0962 14.7362 12.2838H13.2208C13.1491 13.0709 13.0128 13.8507 12.8131 14.6154H7.18698C6.92701 13.6086 6.77386 12.5773 6.73006 11.5385H12.6916V10.7454C12.6856 10.4942 12.6534 10.2444 12.5954 10H6.73083C6.77463 8.96116 6.92778 7.92982 7.18775 6.92308H11.2985C11.0317 6.41923 10.7828 5.90609 10.5524 5.38462H7.71621C8.35236 3.93308 9.19313 3.07692 10.0001 3.07692C10.0001 2.54231 10.0962 2.04 10.2647 1.56231C10.1762 1.55923 10.0893 1.53846 10.0001 1.53846ZM6.82698 3.77385C6.52064 4.28547 6.26309 4.82476 6.05775 5.38462H4.51929C5.18282 4.71023 5.96516 4.16415 6.82698 3.77385ZM3.34159 6.92308H5.60006C5.3674 7.93358 5.23064 8.96379 5.19159 10H2.35544C2.45946 8.91546 2.7958 7.86603 3.34159 6.92308V6.92308ZM2.35544 11.5385H5.19236C5.23775 12.6346 5.37929 13.6692 5.60083 14.6154H3.34159C2.79646 13.6721 2.46017 12.6229 2.35544 11.5385ZM4.51929 16.1538H6.05775C6.27929 16.7508 6.53852 17.2869 6.82698 17.7646C5.96516 17.3743 5.18282 16.8282 4.51929 16.1538V16.1538ZM7.71621 16.1538H12.2839C11.6477 17.6054 10.807 18.4615 10.0001 18.4615C9.19313 18.4615 8.3516 17.6054 7.71621 16.1538ZM13.9424 16.1538H15.4808C14.8173 16.8282 14.035 17.3743 13.1731 17.7646C13.4616 17.2877 13.7208 16.7515 13.9424 16.1538Z" />
</g>
<defs>
<clipPath id="clip0_13_267">
<rect width="20" height="20" />
</clipPath>
</defs>
</symbol>

<symbol id="icon-branches">
<path d="M14.4531 3.14453C13.2461 3.14453 12.2656 4.125 12.2656 5.33203C12.2656 6.31055 12.9121 7.14062 13.7988 7.41992V9.29297L6.25 11.7656V6.21289C7.11328 5.91992 7.73438 5.10156 7.73438 4.14062C7.73438 2.93359 6.75391 1.95312 5.54688 1.95312C4.33984 1.95312 3.35938 2.93359 3.35938 4.14062C3.35938 5.10156 3.98047 5.91797 4.84375 6.21289V13.7891C3.98047 14.082 3.35938 14.9004 3.35938 15.8613C3.35938 17.0684 4.33984 18.0488 5.54688 18.0488C6.75391 18.0488 7.73438 17.0684 7.73438 15.8613C7.73438 14.9004 7.11328 14.084 6.25 13.7891V13.2461L14.5215 10.5371C14.7201 10.4725 14.8931 10.3466 15.0156 10.1774C15.1381 10.0082 15.2038 9.80457 15.2031 9.5957V7.38672C16.041 7.07812 16.6406 6.27344 16.6406 5.33203C16.6406 4.125 15.6602 3.14453 14.4531 3.14453ZM4.60938 4.14062C4.61438 3.8953 4.71536 3.66171 4.89063 3.48998C5.0659 3.31825 5.3015 3.22207 5.54688 3.22207C5.79225 3.22207 6.02785 3.31825 6.20312 3.48998C6.37839 3.66171 6.47937 3.8953 6.48438 4.14062C6.47937 4.38595 6.37839 4.61954 6.20312 4.79127C6.02785 4.963 5.79225 5.05918 5.54688 5.05918C5.3015 5.05918 5.0659 4.963 4.89063 4.79127C4.71536 4.61954 4.61438 4.38595 4.60938 4.14062ZM6.48438 15.8594C6.47937 16.1047 6.37839 16.3383 6.20312 16.51C6.02785 16.6817 5.79225 16.7779 5.54688 16.7779C5.3015 16.7779 5.0659 16.6817 4.89063 16.51C4.71536 16.3383 4.61438 16.1047 4.60938 15.8594C4.61438 15.614 4.71536 15.3805 4.89063 15.2087C5.0659 15.037 5.3015 14.9408 5.54688 14.9408C5.79225 14.9408 6.02785 15.037 6.20312 15.2087C6.37839 15.3805 6.47937 15.614 6.48438 15.8594ZM14.4531 6.26953C14.2078 6.26452 13.9742 6.16355 13.8025 5.98828C13.6308 5.81301 13.5346 5.57741 13.5346 5.33203C13.5346 5.08665 13.6308 4.85105 13.8025 4.67578C13.9742 4.50051 14.2078 4.39954 14.4531 4.39453C14.6985 4.39954 14.932 4.50051 15.1038 4.67578C15.2755 4.85105 15.3717 5.08665 15.3717 5.33203C15.3717 5.57741 15.2755 5.81301 15.1038 5.98828C14.932 6.16355 14.6985 6.26452 14.4531 6.26953Z"/>
</symbol>
<symbol id="icon-moderators">
<path d="M12.6334 11.0583C12.55 11.05 12.45 11.05 12.3584 11.0583C10.375 10.9917 8.80005 9.36667 8.80005 7.36667C8.80005 5.32501 10.45 3.66667 12.5 3.66667C14.5417 3.66667 16.2 5.32501 16.2 7.36667C16.1917 9.36667 14.6167 10.9917 12.6334 11.0583Z" />
<path d="M8.46672 14.1333C6.45006 15.4833 6.45006 17.6833 8.46672 19.025C10.7584 20.5583 14.5167 20.5583 16.8084 19.025C18.8251 17.675 18.8251 15.475 16.8084 14.1333C14.5251 12.6083 10.7667 12.6083 8.46672 14.1333Z" />
<path opacity="0.4" d="M18.6334 8.05834C18.55 8.05 18.45 8.05 18.3584 8.05834C16.375 7.99167 14.8 6.36667 14.8 4.36667C14.8 2.32501 16.45 0.666672 18.5 0.666672C20.5417 0.666672 22.2 2.32501 22.2 4.36667C22.1917 6.36667 20.6167 7.99167 18.6334 8.05834Z" />
<path opacity="0.4" d="M14.4667 11.1333C12.4501 12.4833 12.4501 14.6833 14.4667 16.025C16.7584 17.5583 20.5167 17.5583 22.8084 16.025C24.8251 14.675 24.8251 12.475 22.8084 11.1333C20.5251 9.60834 16.7667 9.60834 14.4667 11.1333Z" />
<path opacity="0.4" d="M6.63338 8.05834C6.55005 8.05 6.45005 8.05 6.35838 8.05834C4.37505 7.99167 2.80005 6.36667 2.80005 4.36667C2.80005 2.32501 4.45005 0.666672 6.50005 0.666672C8.54172 0.666672 10.2 2.32501 10.2 4.36667C10.1917 6.36667 8.61672 7.99167 6.63338 8.05834Z" />
<path opacity="0.4" d="M2.46672 11.1333C0.450057 12.4833 0.450057 14.6833 2.46672 16.025C4.75839 17.5583 8.51672 17.5583 10.8084 16.025C12.8251 14.675 12.8251 12.475 10.8084 11.1333C8.52506 9.60834 4.76672 9.60834 2.46672 11.1333Z" />
</symbol>

</svg>
